<svg xmlns="http://www.w3.org/2000/svg" xmlns:xlink="http://www.w3.org/1999/xlink" width="176.9" height="18.1" viewBox="0 -750 9773 1000">
  <defs>
    <style>
      svg { mix-blend-mode: difference; }
    </style>
    <path id="a" d="M94 250q0 69 10 131t23 107 37 88 38 67 42 52 33 34 25 21h17q14 0 14-9 0-3-17-21t-41-53-49-86-42-138-17-193 17-192 41-139 49-86 42-53 17-21q0-9-15-9h-16l-28 24q-94 85-137 212T94 250Z"/>
    <path id="b" d="M52 289q7 42 54 97t116 56q35 0 64-18t43-45q42 63 101 63 37 0 64-22t28-59q0-29-14-47t-27-22-23-4q-19 0-31 11t-12 29q0 46 50 63-11 13-40 13-13 0-19-2-38-16-56-66-60-221-60-258 0-28 16-40t35-12q37 0 73 33t49 81q3 10 6 11t16 2h4q15 0 15-8l-2-11q-16-57-62-101T333-11q-70 0-106 63-41-62-94-62h-6q-49 0-70 26T35 71q0 32 19 52t45 20q43 0 43-42 0-20-12-35t-23-20-13-5l-3-1 6-4 16-7q10-4 19-3 36 0 62 45 9 16 23 68t28 108 16 66q5 27 5 39 0 28-15 40t-34 12q-40 0-75-32t-49-82q-2-9-5-10t-16-2H58q-6 6-6 11Z"/>
    <path id="c" d="m213 578-13-5q-14-5-40-10t-58-7H83v46h19q47 2 87 15t56 24 28 22q2 3 12 3 9 0 17-6V361l1-300q7-7 12-9t24-4 62-2h26V0h-11q-21 3-159 3-136 0-157-3H88v46h64l25 1 16 3 8 2 6 5q5 5 6 4v517Z"/>
    <path id="d" d="M84 237v13l14 20h581q15-8 15-20t-15-20H98q-14 7-14 20Z"/>
    <path id="e" d="M96 585q56 81 153 81 48 0 96-26t78-92q37-83 37-228 0-155-43-237-20-42-55-67t-61-31-51-7q-26 0-52 6t-61 32-55 67q-43 82-43 237 0 174 57 265Zm225 12q-30 32-71 32-42 0-72-32-25-26-33-72t-8-192q0-158 8-208t36-79q28-30 69-30 40 0 68 30 29 30 36 84t8 203q0 145-8 191t-33 73Z"/>
    <path id="f" d="m60 749 4 1h22l28-24q94-85 137-212t43-264q0-68-10-131T261 12t-37-88-38-67-41-51-32-33-23-19l-4-4H63q-3 0-5 3t-3 9l11 13Q221-64 221 250T66 725l-11 13q0 8 5 11Z"/>
    <path id="g" d="M78 250q0 24 17 42t43 18q24 0 42-16t19-43q0-25-17-43t-43-18-43 17-18 43Z"/>
    <path id="h" d="M39 168q0 57 19 104t49 78 67 52 70 31 63 9h3q45 0 78-22t33-65q0-90-111-118-49-13-134-14-37 0-38-2l-6-35q-6-33-7-58 0-47 21-74t63-28 93 19 92 66q9 10 12 10 4 0 13-9t10-14-9-16-30-27-46-31-63-25-76-10q-79 0-122 53T39 168Zm334 185q-6 52-68 52-33 0-61-14t-45-34-29-41-16-36-5-19l20-1q113 0 158 24t46 69Z"/>
    <path id="i" d="M33 157q0 101 76 192t171 92q51 0 90-49 16 30 46 30 13 0 23-8t10-20q0-13-37-160T374 68q0-25 7-33t21-9q9 1 20 9 21 20 41 96 6 20 10 21l10 1h4q19 0 19-9 0-6-5-27t-20-54-32-50Q436 0 417-8q-8-2-24-2-34 0-57 15t-30 31l-6 15q-1 1-4-1l-4-4q-59-56-120-56-55 0-97 40T33 157Zm318 171q0 6-5 22t-23 35-46 20q-35 0-67-31t-50-81q-29-79-41-164v-11l-1-12q0-45 18-62t43-18q38 0 75 33t44 51l27 107 26 111Z"/>
    <path id="j" d="M131 289q0 32 16 65t56 61 97 27q62 0 90-27t29-60q0-32-17-47t-38-16q-13 0-24 8t-12 26q0 16 9 28t17 18 13 6l1 1q0 3-7 9t-25 11-39 6q-48 0-70-26t-23-53q0-25 19-35t55-17 52-15q66-29 66-96 0-28-11-56t-33-56-63-44-94-17q-77 0-109 29T53 87q0 39 21 56t44 17q15 0 28-9t14-31q0-26-18-44t-31-18l-3-1-1-2q1-3 8-8t31-13 55-7q36 0 62 11t38 28 17 31 5 25q0 28-21 42t-48 17-59 15-47 35q-17 25-17 58Z"/>
    <path id="k" d="M56 237v13l14 20h299v150l1 150q10 13 19 13 13 0 20-15V270h298q15-8 15-20t-15-20H409V-68q-8-14-18-14h-4q-12 0-18 14v298H70q-14 7-14 20Z"/>
  </defs>
  <g fill="currentColor" stroke="currentColor">
    <use xlink:href="#a" data-mml-node="mo" transform="scale(1 -1)"/>
    <g data-mml-node="msub">
      <use xlink:href="#b" data-mml-node="mi" transform="matrix(1 0 0 -1 389 0)"/>
      <use xlink:href="#c" data-mml-node="mn" transform="matrix(.707 0 0 -.707 961 150)"/>
    </g>
    <use xlink:href="#d" data-mml-node="mo" transform="matrix(1 0 0 -1 1587 0)"/>
    <g data-mml-node="msub">
      <use xlink:href="#b" data-mml-node="mi" transform="matrix(1 0 0 -1 2587 0)"/>
      <use xlink:href="#e" data-mml-node="mn" transform="matrix(.707 0 0 -.707 3159 150)"/>
    </g>
    <use xlink:href="#f" data-mml-node="mo" transform="matrix(1 0 0 -1 3563 0)"/>
    <use xlink:href="#g" data-mml-node="mo" transform="matrix(1 0 0 -1 4174 0)"/>
    <g data-mml-node="msub">
      <use xlink:href="#h" data-mml-node="mi" transform="matrix(1 0 0 -1 4674 0)"/>
      <g data-mml-node="TeXAtom">
        <use xlink:href="#i" data-mml-node="mi" transform="matrix(.707 0 0 -.707 5140 150)"/>
        <use xlink:href="#j" data-mml-node="mi" transform="matrix(.707 0 0 -.707 5514 150)"/>
        <use xlink:href="#h" data-mml-node="mi" transform="matrix(.707 0 0 -.707 5846 150)"/>
      </g>
    </g>
    <use xlink:href="#a" data-mml-node="mo" transform="matrix(1 0 0 -1 6225 0)"/>
    <use xlink:href="#b" data-mml-node="mi" transform="matrix(1 0 0 -1 6614 0)"/>
    <use xlink:href="#f" data-mml-node="mo" transform="matrix(1 0 0 -1 7186 0)"/>
    <use xlink:href="#k" data-mml-node="mo" transform="matrix(1 0 0 -1 7797 0)"/>
    <g data-mml-node="msub">
      <use xlink:href="#b" data-mml-node="mi" transform="matrix(1 0 0 -1 8798 0)"/>
      <use xlink:href="#e" data-mml-node="mn" transform="matrix(.707 0 0 -.707 9370 150)"/>
    </g>
  </g>
</svg>
